<svg xmlns="http://www.w3.org/2000/svg" xmlns:xlink="http://www.w3.org/1999/xlink" aria-hidden="true" role="img" width="1em" height="1em" preserveAspectRatio="xMidYMid meet" viewBox="0 0 24 24"><g fill="none"><path d="M12 6a1 1 0 0 1 1 1v4h4a1 1 0 1 1 0 2h-4v4a1 1 0 1 1-2 0v-4H7a1 1 0 1 1 0-2h4V7a1 1 0 0 1 1-1z" fill="currentColor"/><path fill-rule="evenodd" clip-rule="evenodd" d="M5 22a3 3 0 0 1-3-3V5a3 3 0 0 1 3-3h14a3 3 0 0 1 3 3v14a3 3 0 0 1-3 3H5zm-1-3a1 1 0 0 0 1 1h14a1 1 0 0 0 1-1V5a1 1 0 0 0-1-1H5a1 1 0 0 0-1 1v14z" fill="currentColor"/></g></svg>
