<svg viewBox="0 0 14 14" fill="none" xmlns="http://www.w3.org/2000/svg">
<path d="M9.55502 2.016C12.306 3.423 13.391 6.804 11.984 9.555C10.577 12.306 7.20302 13.391 4.44502 11.984C3.18508 11.3388 2.21872 10.2372 1.74302 8.904L2.89102 8.183C3.05177 8.74561 3.32598 9.26936 3.69677 9.72201C4.06756 10.1747 4.52707 10.5466 5.04702 10.815C7.15402 11.893 9.73002 11.06 10.808 8.953C11.0708 8.45234 11.2317 7.90458 11.2815 7.34137C11.3313 6.77815 11.2691 6.21065 11.0983 5.67164C10.9275 5.13263 10.6516 4.6328 10.2866 4.20103C9.92154 3.76926 9.47455 3.4141 8.97145 3.15607C8.46834 2.89805 7.91909 2.74227 7.35544 2.69774C6.79178 2.6532 6.22489 2.7208 5.68751 2.89662C5.15012 3.07244 4.65291 3.35301 4.22458 3.7221C3.79626 4.09119 3.44531 4.54149 3.19202 5.047L4.50802 5.726L1.04302 7.882L0.77002 3.808L2.01602 4.445C3.43002 1.68 6.82502 0.623 9.55502 2.016ZM6.50302 7.497C6.43805 7.43166 6.38666 7.3541 6.35182 7.2688C6.31698 7.1835 6.29937 7.09214 6.30002 7C6.30002 6.951 6.32102 6.916 6.32802 6.867H6.32102L7.00002 3.5L7.67902 6.867L9.80002 9.1L6.65002 7.616L6.66402 7.602C6.60802 7.574 6.55202 7.539 6.50302 7.497Z" fill="currentColor"/>
</svg>
