<svg width="17" height="17" viewBox="0 0 17 17" fill="none" xmlns="http://www.w3.org/2000/svg">
    <path
        d="M8.14077 4.37835L8.49997 5.4353L8.85923 4.37835C9.13278 3.57335 9.5846 2.99003 10.2092 2.60224C10.8399 2.2107 11.6771 2 12.7471 2C14.2341 2 15.2589 2.91856 15.7247 4.18923C16.1951 5.47233 16.0758 7.07961 15.2649 8.345C14.1556 10.076 11.9146 12.2931 8.49997 15C5.0854 12.2931 2.84444 10.076 1.73511 8.345C0.924177 7.07961 0.804864 5.47233 1.27528 4.18923C1.74114 2.91856 2.7659 2 4.2529 2C5.32289 2 6.16009 2.2107 6.79079 2.60224C7.4154 2.99003 7.86722 3.57335 8.14077 4.37835Z"
        fill="currentColor" 
        stroke="black"
    />
</svg>
