<svg width="49" height="32" viewBox="0 0 49 32" fill="none" xmlns="http://www.w3.org/2000/svg">
<path d="M34.7502 22.5175H34.2502V23.0175V26.339C34.2502 28.8759 32.1937 30.9324 29.6568 30.9324H5.60696C3.07007 30.9324 1.01352 28.8759 1.01352 26.339V2.84402C1.01352 1.71365 1.92987 0.797302 3.06024 0.797302H34.7502H37.9102C43.7289 0.797302 48.4459 5.51433 48.4459 11.3331V11.9818C48.4459 17.8005 43.7289 22.5175 37.9102 22.5175H34.7502ZM34.7502 5.68773H34.2502V6.18773V17.1271V17.6271H34.7502H37.631C40.9279 17.6271 43.6007 14.9544 43.6007 11.6574C43.6007 8.36045 40.9279 5.68773 37.631 5.68773H34.7502Z" fill="white" stroke="black"/>
<path d="M16.4728 10.8312L16.9459 12.2155L17.4191 10.8312C17.7794 9.77687 18.3745 9.01288 19.1972 8.50499C20.0279 7.99218 21.1306 7.71622 22.5399 7.71622C24.4985 7.71622 25.8482 8.91928 26.4618 10.5835C27.0814 12.264 26.9242 14.3691 25.8561 16.0264C24.395 18.2936 21.4434 21.1973 16.9459 24.7426C12.4485 21.1973 9.49688 18.2936 8.03576 16.0264C6.96766 14.3691 6.81051 12.264 7.4301 10.5835C8.0437 8.91928 9.39343 7.71622 11.352 7.71622C12.7613 7.71622 13.864 7.99218 14.6947 8.50499C15.5174 9.01288 16.1125 9.77687 16.4728 10.8312Z" fill="#FF5E5B" stroke="black"/>
</svg>
