<svg xmlns="http://www.w3.org/2000/svg" viewBox="0 0 16 16"><path fill="currentColor" d="M7.268 3.99999H3A2 2 0 0 0 1 6v6a2.00005 2.00005 0 0 0 2 2h8c.5304 0 1.0391-.2107 1.4142-.5858S13 12.5304 13 12v-1h-1v1c0 .2652-.1054.5196-.2929.7071A1.0001 1.0001 0 0 1 11 13H3a.99997.99997 0 0 1-1-1V7.876l3.079 1.657c-.1-.356-.103-.74501.017-1.12601L2 6.74V6a1.00003 1.00003 0 0 1 1-1.00001h3.769l.5-1h-.001ZM6.107 8.552l3.496-6.99801a1.00003 1.00003 0 0 1 1.4213-.40424.9997.9997 0 0 1 .3687.40424l3.5 6.99801c.0764.15253.1126.32208.105.49253a1.00004 1.00004 0 0 1-.5125.82913A.99979.99979 0 0 1 13.998 10H7.002a.9996.9996 0 0 1-.48749-.12634.99989.99989 0 0 1-.3641-.3479A1 1 0 0 1 6.107 8.552Zm4.39-5.55701a.50017.50017 0 0 0-.3536.14645.50025.50025 0 0 0-.1464.35355v3.002c0 .13275.0527.26005.1466.35391a.50063.50063 0 0 0 .3539.14659c.1327 0 .26-.05273.3539-.14659a.50033.50033 0 0 0 .1466-.35391v-3.002a.50025.50025 0 0 0-.1464-.35355.50017.50017 0 0 0-.3536-.14645h-.001Zm.501 5.504a.50025.50025 0 0 0-.1464-.35355.50017.50017 0 0 0-.3536-.14645.50017.50017 0 0 0-.3536.14645.50025.50025 0 0 0-.1464.35355c0 .13261.0527.25979.1464.35356a.50016.50016 0 0 0 .7072 0 .50026.50026 0 0 0 .1464-.35356Z"/></svg>
