<svg xmlns="http://www.w3.org/2000/svg" viewBox="0 0 37 37" shape-rendering="crispEdges"><path fill="#ffffff" d="M0 0h37v37H0z"/><path stroke="#000000" d="M4 4.5h7m2 0h2m2 0h3m3 0h2m1 0h7M4 5.5h1m5 0h1m3 0h1m2 0h6m1 0h1m1 0h1m5 0h1M4 6.5h1m1 0h3m1 0h1m1 0h2m1 0h1m1 0h1m1 0h1m2 0h2m2 0h1m1 0h3m1 0h1M4 7.5h1m1 0h3m1 0h1m1 0h1m5 0h2m1 0h1m2 0h1m1 0h1m1 0h3m1 0h1M4 8.5h1m1 0h3m1 0h1m1 0h2m5 0h2m2 0h2m1 0h1m1 0h3m1 0h1M4 9.5h1m5 0h1m1 0h1m1 0h1m11 0h1m5 0h1M4 10.5h7m1 0h1m1 0h1m1 0h1m1 0h1m1 0h1m1 0h1m1 0h1m1 0h7M12 11.5h3m1 0h1m1 0h1m1 0h1m1 0h2M4 12.5h1m1 0h5m2 0h1m7 0h4m1 0h5M4 13.5h1m2 0h1m1 0h1m4 0h6m4 0h6m1 0h2M5 14.5h1m1 0h2m1 0h2m1 0h1m3 0h6m1 0h1m3 0h1M4 15.5h3m5 0h2m1 0h3m1 0h2m4 0h2m2 0h1M8 16.5h4m2 0h1m3 0h2m3 0h2m3 0h1m1 0h3M4 17.5h3m2 0h1m2 0h3m5 0h4m1 0h1m1 0h3m2 0h1M5 18.5h2m1 0h1m1 0h1m1 0h1m1 0h1m4 0h1m2 0h1M8 19.5h2m1 0h2m2 0h2m1 0h2m2 0h6m1 0h1m2 0h1M4 20.5h1m1 0h1m1 0h1m1 0h1m4 0h1m4 0h3m1 0h2m4 0h1M4 21.5h4m1 0h1m7 0h2m1 0h1m2 0h2m1 0h6M4 22.5h1m5 0h1m1 0h2m1 0h5m1 0h2m2 0h1m3 0h2M4 23.5h1m3 0h1m2 0h1m5 0h1m8 0h4m1 0h1M4 24.5h1m1 0h3m1 0h1m2 0h2m1 0h1m1 0h5m1 0h5M12 25.5h1m1 0h3m2 0h3m1 0h2m3 0h1m2 0h1M4 26.5h7m2 0h1m1 0h2m2 0h1m2 0h3m1 0h1m1 0h2M4 27.5h1m5 0h1m1 0h2m4 0h3m2 0h2m3 0h2m1 0h2M4 28.5h1m1 0h3m1 0h1m1 0h1m2 0h2m2 0h4m1 0h8M4 29.5h1m1 0h3m1 0h1m1 0h1m4 0h2m2 0h1m7 0h1m1 0h2M4 30.5h1m1 0h3m1 0h1m1 0h3m3 0h3m1 0h1m1 0h1m1 0h4m1 0h1M4 31.5h1m5 0h1m5 0h1m1 0h2m3 0h3m2 0h2m1 0h1M4 32.5h7m1 0h6m3 0h1m1 0h1m6 0h1"/></svg>
