<svg viewBox="0 0 30 50" fill="none" xmlns="http://www.w3.org/2000/svg">
<g clip-path="url(#clip0_141_344)">
<path d="M0 3.81837C0 1.70954 1.98169 0 4.42623 0H25.5738C28.0183 0 30 1.70954 30 3.81837V45.8825C30 47.5478 28.7633 48.9672 27.034 49.4882C26.1562 49.7526 25.2388 49.4261 24.4782 48.9143L15.0726 42.5847L5.63329 49.2039C4.89408 49.7223 4.00006 50.0639 3.12724 49.833C1.31899 49.3547 0 47.9028 0 46.1816V3.81837Z" fill="currentColor"/>
<path d="M14.6569 18.3824L15.8666 13.2353H20.9472" stroke="white" stroke-linecap="round" stroke-linejoin="round"/>
<path d="M20.2214 15.6863C21.5576 15.6863 22.6407 14.589 22.6407 13.2353C22.6407 11.8817 21.5576 10.7843 20.2214 10.7843C18.8852 10.7843 17.802 11.8817 17.802 13.2353C17.802 14.589 18.8852 15.6863 20.2214 15.6863Z" fill="white"/>
<path d="M15.0683 32.3529C20.8389 32.3529 25.2739 29.0609 25.2739 25C25.2739 24.7863 25.2616 24.5753 25.2375 24.3675C25.5841 24.0234 25.8521 23.5861 25.9995 23.0793C26.4536 21.5184 25.5923 19.8892 24.0756 19.4403C23.3367 19.2216 22.5786 19.3234 21.9428 19.6658C20.1484 18.5516 17.7529 17.8922 15.0683 17.8922C12.3475 17.8922 9.9236 18.5695 8.12149 19.7111C7.46974 19.3327 6.67832 19.2122 5.9078 19.4403C4.39115 19.8892 3.52978 21.5184 3.98387 23.0793C4.15054 23.6522 4.47128 24.1363 4.88553 24.4974C4.87032 24.663 4.86261 24.8306 4.86261 25C4.86261 29.0609 9.29763 32.3529 15.0683 32.3529Z" fill="white"/>
<path d="M12.9355 24.0196C12.9355 25.1025 12.0689 25.9804 11 25.9804C9.93106 25.9804 9.06451 25.1025 9.06451 24.0196C9.06451 22.9367 9.93106 22.0588 11 22.0588C12.0689 22.0588 12.9355 22.9367 12.9355 24.0196Z" fill="#E85728"/>
<path d="M20.1935 24.0196C20.1935 25.1025 19.327 25.9804 18.2581 25.9804C17.1891 25.9804 16.3226 25.1025 16.3226 24.0196C16.3226 22.9367 17.1891 22.0588 18.2581 22.0588C19.327 22.0588 20.1935 22.9367 20.1935 24.0196Z" fill="#E85728"/>
<path d="M18.8386 28.2476C19.3794 28.3633 19.6381 28.9668 19.219 29.3275C18.9028 29.5996 18.518 29.8402 18.0767 30.0389C17.2179 30.4258 16.188 30.6349 15.1307 30.6372C14.0733 30.6396 13.0412 30.4349 12.1781 30.0519C11.7342 29.8549 11.3464 29.6157 11.027 29.3447C10.6053 28.9869 10.8598 28.3813 11.4001 28.2631C11.7559 28.1853 12.1142 28.3614 12.3812 28.6091C12.6024 28.8143 12.882 28.9942 13.2082 29.139C13.7684 29.3876 14.4382 29.5204 15.1244 29.5189C15.8107 29.5174 16.479 29.3816 17.0364 29.1306C17.3585 28.9855 17.6343 28.806 17.8525 28.6018C18.1202 28.3511 18.48 28.171 18.8386 28.2476Z" fill="#A63612"/>
<path d="M21.7952 31.7464C22.3539 32.0732 22.3879 32.8604 21.8186 33.1685C20.996 33.6136 20.0751 33.9786 19.0845 34.25C17.5967 34.6577 15.9886 34.8444 14.3767 34.7966C12.7648 34.7488 11.1893 34.4676 9.76421 33.9735C8.84467 33.6546 8.0026 33.2522 7.26208 32.7798C6.69923 32.4207 6.80085 31.6168 7.40136 31.3251C7.73926 31.1609 8.13959 31.2196 8.44279 31.4414C9.12004 31.9369 9.92774 32.3511 10.8296 32.6638C11.9574 33.0549 13.2042 33.2774 14.4798 33.3152C15.7555 33.3531 17.028 33.2053 18.2055 32.8827C19.1674 32.6191 20.0461 32.2442 20.8002 31.7772C21.1037 31.5893 21.487 31.5661 21.7952 31.7464Z" fill="white"/>
<path d="M15 5C15.5523 5 16 4.55228 16 4C16 3.44772 15.5523 3 15 3C14.4477 3 14 3.44772 14 4C14 4.55228 14.4477 5 15 5Z" fill="white"/>
<path d="M4 2V6H6V5.2H5V2.8H6V2H4Z" fill="white"/>
<path d="M26 2V6H24V5.2H25V2.8H24V2H26Z" fill="white"/>
</g>
<defs>
<clipPath id="clip0_141_344">
<rect width="30" height="50" fill="white"/>
</clipPath>
</defs>
</svg>
