<svg width="25" height="25" viewBox="0 0 25 25" fill="none" xmlns="http://www.w3.org/2000/svg">
<g fill="currentColor">
    <path d="M18.2292 6.77083C19.9479 6.77083 21.3542 8.17708 21.3542 9.89583V15.1042C21.3542 16.8229 19.9479 18.2292 18.2292 18.2292V20.3125C21.0937 20.3125 23.4375 17.9687 23.4375 15.1042V9.89583C23.4375 7.03125 21.0937 4.6875 18.2292 4.6875L12.3958 4.6875V6.77083L18.2292 6.77083Z" />
    <path d="M13.5417 2.39582L9.16666 5.72915L13.5417 9.06249V2.39582Z" />
    <path d="M6.77087 18.2292C5.05212 18.2292 3.64587 16.8229 3.64587 15.1042V9.89583C3.64587 8.17708 5.05212 6.77083 6.77087 6.77083V4.6875C3.90629 4.6875 1.56254 7.03125 1.56254 9.89583V15.1042C1.56254 17.9687 3.90629 20.3125 6.77087 20.3125H13.0209L13.0209 18.2292H6.77087Z" />
    <path d="M11.4583 15.9374L15.8333 19.2708L11.4583 22.6041V15.9374Z" />
</g>
</svg>
