<svg width="25" height="25" viewBox="0 0 25 25" fill="none" xmlns="http://www.w3.org/2000/svg">
<g fill="currentColor">
    <path d="M18.2292 18.2292C19.9479 18.2292 21.3542 16.8229 21.3542 15.1042V9.8958C21.3542 8.1771 19.9479 6.7708 18.2292 6.7708V4.6875C21.0937 4.6875 23.4375 7.0313 23.4375 9.8958V15.1042C23.4375 17.9687 21.0937 20.3125 18.2292 20.3125H12.3958V18.2292H18.2292Z" />
    <path d="M13.5417 22.6042L9.16666 19.2709L13.5417 15.9375V22.6042Z" />
    <path d="M6.77086 6.7708C5.05211 6.7708 3.64586 8.1771 3.64586 9.8958V15.1042C3.64586 16.8229 5.05211 18.2292 6.77086 18.2292V20.3125C3.90628 20.3125 1.56253 17.9687 1.56253 15.1042V9.8958C1.56253 7.0313 3.90628 4.6875 6.77086 4.6875H13.0209V6.7708H6.77086Z" />
    <path d="M11.4583 9.06262L15.8333 5.72922L11.4583 2.39592V9.06262Z" />
</g>
</svg>
